<mxfile host="Electron" agent="Mozilla/5.0 (Windows NT 10.0; Win64; x64) AppleWebKit/537.36 (KHTML, like Gecko) draw.io/26.0.16 Chrome/132.0.6834.196 Electron/34.2.0 Safari/537.36" version="26.0.16">
  <diagram name="Page-1" id="2m4wh7v3PmHXvsgqi0Bo">
    <mxGraphModel dx="1128" dy="562" grid="1" gridSize="10" guides="1" tooltips="1" connect="1" arrows="1" fold="1" page="1" pageScale="1" pageWidth="827" pageHeight="1169" math="0" shadow="0">
      <root>
        <mxCell id="0" />
        <mxCell id="1" parent="0" />
        <mxCell id="oQlI8IUR9d3YUx72Ssix-1" value="1) Modelo Conceptual" style="text;html=1;align=left;verticalAlign=middle;whiteSpace=wrap;rounded=0;fontSize=24;" parent="1" vertex="1">
          <mxGeometry x="40" y="50" width="320" height="30" as="geometry" />
        </mxCell>
        <mxCell id="oQlI8IUR9d3YUx72Ssix-2" value="Sucursal" style="rounded=0;whiteSpace=wrap;html=1;" parent="1" vertex="1">
          <mxGeometry x="200" y="280" width="120" height="40" as="geometry" />
        </mxCell>
        <mxCell id="oQlI8IUR9d3YUx72Ssix-3" value="domicilio" style="ellipse;whiteSpace=wrap;html=1;" parent="1" vertex="1">
          <mxGeometry x="100" y="200" width="120" height="40" as="geometry" />
        </mxCell>
        <mxCell id="oQlI8IUR9d3YUx72Ssix-8" value="teléfono" style="ellipse;whiteSpace=wrap;html=1;" parent="1" vertex="1">
          <mxGeometry x="270" y="200" width="120" height="40" as="geometry" />
        </mxCell>
        <mxCell id="oQlI8IUR9d3YUx72Ssix-9" value="&lt;u&gt;código&lt;/u&gt;" style="ellipse;whiteSpace=wrap;html=1;" parent="1" vertex="1">
          <mxGeometry x="30" y="380" width="120" height="40" as="geometry" />
        </mxCell>
        <mxCell id="oQlI8IUR9d3YUx72Ssix-12" value="" style="endArrow=none;html=1;rounded=0;exitX=0.621;exitY=1.061;exitDx=0;exitDy=0;exitPerimeter=0;entryX=0.188;entryY=-0.011;entryDx=0;entryDy=0;entryPerimeter=0;" parent="1" edge="1" target="oQlI8IUR9d3YUx72Ssix-2" source="oQlI8IUR9d3YUx72Ssix-3">
          <mxGeometry width="50" height="50" relative="1" as="geometry">
            <mxPoint x="99.99999999999994" y="310" as="sourcePoint" />
            <mxPoint x="164.0399999999999" y="259.99999999999994" as="targetPoint" />
          </mxGeometry>
        </mxCell>
        <mxCell id="oQlI8IUR9d3YUx72Ssix-13" value="Empleado" style="rounded=0;whiteSpace=wrap;html=1;" parent="1" vertex="1">
          <mxGeometry x="680" y="280" width="120" height="40" as="geometry" />
        </mxCell>
        <mxCell id="oQlI8IUR9d3YUx72Ssix-14" value="nombre" style="ellipse;whiteSpace=wrap;html=1;" parent="1" vertex="1">
          <mxGeometry x="770" y="200" width="120" height="40" as="geometry" />
        </mxCell>
        <mxCell id="oQlI8IUR9d3YUx72Ssix-15" value="apellido" style="ellipse;whiteSpace=wrap;html=1;" parent="1" vertex="1">
          <mxGeometry x="860" y="280" width="120" height="40" as="geometry" />
        </mxCell>
        <mxCell id="oQlI8IUR9d3YUx72Ssix-16" value="&lt;u&gt;rfc&lt;/u&gt;" style="ellipse;whiteSpace=wrap;html=1;" parent="1" vertex="1">
          <mxGeometry x="550" y="360" width="120" height="40" as="geometry" />
        </mxCell>
        <mxCell id="oQlI8IUR9d3YUx72Ssix-17" value="teléfono" style="ellipse;whiteSpace=wrap;html=1;" parent="1" vertex="1">
          <mxGeometry x="600" y="200" width="120" height="40" as="geometry" />
        </mxCell>
        <mxCell id="oQlI8IUR9d3YUx72Ssix-22" value="Modelo Entidad Relación" style="text;html=1;align=left;verticalAlign=middle;whiteSpace=wrap;rounded=0;" parent="1" vertex="1">
          <mxGeometry x="520" y="50" width="190" height="30" as="geometry" />
        </mxCell>
        <mxCell id="Q5rVgcIDudq4uHsDflU4-11" style="edgeStyle=orthogonalEdgeStyle;rounded=0;orthogonalLoop=1;jettySize=auto;html=1;entryX=1;entryY=0.5;entryDx=0;entryDy=0;endArrow=none;startFill=0;" edge="1" parent="1" source="oQlI8IUR9d3YUx72Ssix-23" target="oQlI8IUR9d3YUx72Ssix-2">
          <mxGeometry relative="1" as="geometry" />
        </mxCell>
        <mxCell id="Q5rVgcIDudq4uHsDflU4-13" style="edgeStyle=orthogonalEdgeStyle;rounded=0;orthogonalLoop=1;jettySize=auto;html=1;entryX=0;entryY=0.5;entryDx=0;entryDy=0;endArrow=none;startFill=0;" edge="1" parent="1" source="oQlI8IUR9d3YUx72Ssix-23" target="oQlI8IUR9d3YUx72Ssix-13">
          <mxGeometry relative="1" as="geometry" />
        </mxCell>
        <mxCell id="oQlI8IUR9d3YUx72Ssix-23" value="tiene" style="rhombus;whiteSpace=wrap;html=1;" parent="1" vertex="1">
          <mxGeometry x="440" y="280" width="120" height="40" as="geometry" />
        </mxCell>
        <mxCell id="Jr2bOZ-NmzqemenztBpP-1" value="1" style="text;html=1;align=center;verticalAlign=middle;whiteSpace=wrap;rounded=0;" parent="1" vertex="1">
          <mxGeometry x="430" y="280" width="20" height="20" as="geometry" />
        </mxCell>
        <mxCell id="Jr2bOZ-NmzqemenztBpP-2" value="n" style="text;html=1;align=center;verticalAlign=middle;whiteSpace=wrap;rounded=0;" parent="1" vertex="1">
          <mxGeometry x="550" y="280" width="20" height="20" as="geometry" />
        </mxCell>
        <mxCell id="Jr2bOZ-NmzqemenztBpP-5" value="cod_suc" style="ellipse;whiteSpace=wrap;html=1;" parent="1" vertex="1">
          <mxGeometry x="860" y="360" width="120" height="40" as="geometry" />
        </mxCell>
        <mxCell id="Jr2bOZ-NmzqemenztBpP-9" value="EF" style="text;html=1;align=center;verticalAlign=middle;whiteSpace=wrap;rounded=0;" parent="1" vertex="1">
          <mxGeometry x="200" y="110" width="80" height="60" as="geometry" />
        </mxCell>
        <mxCell id="Jr2bOZ-NmzqemenztBpP-10" value="ED" style="text;html=1;align=center;verticalAlign=middle;whiteSpace=wrap;rounded=0;" parent="1" vertex="1">
          <mxGeometry x="720" y="110" width="80" height="60" as="geometry" />
        </mxCell>
        <mxCell id="sLKigQfJ16g1k35YhlFk-1" value="fec. nac." style="ellipse;whiteSpace=wrap;html=1;" parent="1" vertex="1">
          <mxGeometry x="660" y="440" width="120" height="40" as="geometry" />
        </mxCell>
        <mxCell id="sLKigQfJ16g1k35YhlFk-2" value="fec. ingreso" style="ellipse;whiteSpace=wrap;html=1;" parent="1" vertex="1">
          <mxGeometry x="800" y="440" width="120" height="40" as="geometry" />
        </mxCell>
        <mxCell id="Q5rVgcIDudq4uHsDflU4-1" value="" style="endArrow=none;html=1;rounded=0;exitX=0.697;exitY=-0.008;exitDx=0;exitDy=0;exitPerimeter=0;entryX=0.5;entryY=1;entryDx=0;entryDy=0;" edge="1" parent="1" source="oQlI8IUR9d3YUx72Ssix-13" target="oQlI8IUR9d3YUx72Ssix-14">
          <mxGeometry width="50" height="50" relative="1" as="geometry">
            <mxPoint x="319.99999999999994" y="520" as="sourcePoint" />
            <mxPoint x="384.0399999999999" y="469.99999999999994" as="targetPoint" />
          </mxGeometry>
        </mxCell>
        <mxCell id="Q5rVgcIDudq4uHsDflU4-2" value="" style="endArrow=none;html=1;rounded=0;exitX=0.617;exitY=-0.011;exitDx=0;exitDy=0;exitPerimeter=0;entryX=0.4;entryY=1.061;entryDx=0;entryDy=0;entryPerimeter=0;" edge="1" parent="1" source="oQlI8IUR9d3YUx72Ssix-2" target="oQlI8IUR9d3YUx72Ssix-8">
          <mxGeometry width="50" height="50" relative="1" as="geometry">
            <mxPoint x="359.99999999999994" y="415" as="sourcePoint" />
            <mxPoint x="424.0399999999999" y="364.99999999999994" as="targetPoint" />
          </mxGeometry>
        </mxCell>
        <mxCell id="Q5rVgcIDudq4uHsDflU4-3" value="" style="endArrow=none;html=1;rounded=0;exitX=0.833;exitY=0.054;exitDx=0;exitDy=0;exitPerimeter=0;entryX=0.149;entryY=1.096;entryDx=0;entryDy=0;entryPerimeter=0;" edge="1" parent="1" source="oQlI8IUR9d3YUx72Ssix-9" target="oQlI8IUR9d3YUx72Ssix-2">
          <mxGeometry width="50" height="50" relative="1" as="geometry">
            <mxPoint x="219.99999999999994" y="415" as="sourcePoint" />
            <mxPoint x="284.0399999999999" y="364.99999999999994" as="targetPoint" />
          </mxGeometry>
        </mxCell>
        <mxCell id="Q5rVgcIDudq4uHsDflU4-5" value="" style="endArrow=none;html=1;rounded=0;exitX=0.25;exitY=1;exitDx=0;exitDy=0;entryX=0.642;entryY=0.033;entryDx=0;entryDy=0;entryPerimeter=0;" edge="1" parent="1" source="oQlI8IUR9d3YUx72Ssix-13" target="oQlI8IUR9d3YUx72Ssix-16">
          <mxGeometry width="50" height="50" relative="1" as="geometry">
            <mxPoint x="449.99999999999994" y="520" as="sourcePoint" />
            <mxPoint x="514.04" y="469.99999999999994" as="targetPoint" />
          </mxGeometry>
        </mxCell>
        <mxCell id="Q5rVgcIDudq4uHsDflU4-6" value="" style="endArrow=none;html=1;rounded=0;exitX=0.302;exitY=-0.039;exitDx=0;exitDy=0;exitPerimeter=0;entryX=0.593;entryY=1.013;entryDx=0;entryDy=0;entryPerimeter=0;" edge="1" parent="1" source="oQlI8IUR9d3YUx72Ssix-13" target="oQlI8IUR9d3YUx72Ssix-17">
          <mxGeometry width="50" height="50" relative="1" as="geometry">
            <mxPoint x="389.99999999999994" y="520" as="sourcePoint" />
            <mxPoint x="454.0399999999999" y="469.99999999999994" as="targetPoint" />
          </mxGeometry>
        </mxCell>
        <mxCell id="Q5rVgcIDudq4uHsDflU4-7" value="" style="endArrow=none;html=1;rounded=0;exitX=0.94;exitY=0.992;exitDx=0;exitDy=0;exitPerimeter=0;" edge="1" parent="1" source="oQlI8IUR9d3YUx72Ssix-13" target="Jr2bOZ-NmzqemenztBpP-5">
          <mxGeometry width="50" height="50" relative="1" as="geometry">
            <mxPoint x="319.99999999999994" y="590" as="sourcePoint" />
            <mxPoint x="384.0399999999999" y="540" as="targetPoint" />
          </mxGeometry>
        </mxCell>
        <mxCell id="Q5rVgcIDudq4uHsDflU4-8" value="" style="endArrow=none;html=1;rounded=0;exitX=0.704;exitY=0.971;exitDx=0;exitDy=0;exitPerimeter=0;entryX=0.399;entryY=0.033;entryDx=0;entryDy=0;entryPerimeter=0;" edge="1" parent="1" source="oQlI8IUR9d3YUx72Ssix-13" target="sLKigQfJ16g1k35YhlFk-2">
          <mxGeometry width="50" height="50" relative="1" as="geometry">
            <mxPoint x="449.99999999999994" y="590" as="sourcePoint" />
            <mxPoint x="514.04" y="540" as="targetPoint" />
          </mxGeometry>
        </mxCell>
        <mxCell id="Q5rVgcIDudq4uHsDflU4-9" value="" style="endArrow=none;html=1;rounded=0;exitX=1;exitY=0.5;exitDx=0;exitDy=0;entryX=0;entryY=0.5;entryDx=0;entryDy=0;" edge="1" parent="1" source="oQlI8IUR9d3YUx72Ssix-13" target="oQlI8IUR9d3YUx72Ssix-15">
          <mxGeometry width="50" height="50" relative="1" as="geometry">
            <mxPoint x="389.99999999999994" y="590" as="sourcePoint" />
            <mxPoint x="454.0399999999999" y="540" as="targetPoint" />
          </mxGeometry>
        </mxCell>
        <mxCell id="Q5rVgcIDudq4uHsDflU4-10" value="" style="endArrow=none;html=1;rounded=0;exitX=0.5;exitY=1;exitDx=0;exitDy=0;" edge="1" parent="1" source="oQlI8IUR9d3YUx72Ssix-13" target="sLKigQfJ16g1k35YhlFk-1">
          <mxGeometry width="50" height="50" relative="1" as="geometry">
            <mxPoint x="550" y="590" as="sourcePoint" />
            <mxPoint x="614.04" y="540" as="targetPoint" />
          </mxGeometry>
        </mxCell>
        <mxCell id="Q5rVgcIDudq4uHsDflU4-15" value="Revista" style="rounded=0;whiteSpace=wrap;html=1;" vertex="1" parent="1">
          <mxGeometry x="640" y="660" width="120" height="40" as="geometry" />
        </mxCell>
        <mxCell id="Q5rVgcIDudq4uHsDflU4-16" value="&lt;u&gt;ISBN&lt;/u&gt;" style="ellipse;whiteSpace=wrap;html=1;" vertex="1" parent="1">
          <mxGeometry x="530" y="750" width="120" height="40" as="geometry" />
        </mxCell>
        <mxCell id="Q5rVgcIDudq4uHsDflU4-17" value="título" style="ellipse;whiteSpace=wrap;html=1;" vertex="1" parent="1">
          <mxGeometry x="540" y="585" width="120" height="40" as="geometry" />
        </mxCell>
        <mxCell id="Q5rVgcIDudq4uHsDflU4-18" value="periodicidad" style="ellipse;whiteSpace=wrap;html=1;" vertex="1" parent="1">
          <mxGeometry x="770" y="600" width="120" height="40" as="geometry" />
        </mxCell>
        <mxCell id="Q5rVgcIDudq4uHsDflU4-19" value="tipo" style="ellipse;whiteSpace=wrap;html=1;" vertex="1" parent="1">
          <mxGeometry x="780" y="750" width="120" height="40" as="geometry" />
        </mxCell>
        <mxCell id="Q5rVgcIDudq4uHsDflU4-20" value="" style="endArrow=none;html=1;rounded=0;exitX=0.167;exitY=0;exitDx=0;exitDy=0;entryX=0.642;entryY=0.971;entryDx=0;entryDy=0;entryPerimeter=0;exitPerimeter=0;" edge="1" parent="1" source="Q5rVgcIDudq4uHsDflU4-15" target="Q5rVgcIDudq4uHsDflU4-17">
          <mxGeometry width="50" height="50" relative="1" as="geometry">
            <mxPoint x="587.13" y="600" as="sourcePoint" />
            <mxPoint x="570.13" y="720" as="targetPoint" />
          </mxGeometry>
        </mxCell>
        <mxCell id="Q5rVgcIDudq4uHsDflU4-21" value="" style="endArrow=none;html=1;rounded=0;exitX=0.35;exitY=0.95;exitDx=0;exitDy=0;exitPerimeter=0;entryX=1;entryY=0.5;entryDx=0;entryDy=0;" edge="1" parent="1" source="Q5rVgcIDudq4uHsDflU4-18" target="Q5rVgcIDudq4uHsDflU4-15">
          <mxGeometry width="50" height="50" relative="1" as="geometry">
            <mxPoint x="637" y="600" as="sourcePoint" />
            <mxPoint x="620" y="720" as="targetPoint" />
          </mxGeometry>
        </mxCell>
        <mxCell id="Q5rVgcIDudq4uHsDflU4-22" value="" style="endArrow=none;html=1;rounded=0;exitX=0.183;exitY=1.033;exitDx=0;exitDy=0;entryX=0.5;entryY=0;entryDx=0;entryDy=0;exitPerimeter=0;" edge="1" parent="1" source="Q5rVgcIDudq4uHsDflU4-15" target="Q5rVgcIDudq4uHsDflU4-16">
          <mxGeometry width="50" height="50" relative="1" as="geometry">
            <mxPoint x="506.87" y="600" as="sourcePoint" />
            <mxPoint x="489.87" y="720" as="targetPoint" />
          </mxGeometry>
        </mxCell>
        <mxCell id="Q5rVgcIDudq4uHsDflU4-23" value="" style="endArrow=none;html=1;rounded=0;exitX=0.621;exitY=1.033;exitDx=0;exitDy=0;exitPerimeter=0;entryX=0.239;entryY=0.013;entryDx=0;entryDy=0;entryPerimeter=0;" edge="1" parent="1" source="Q5rVgcIDudq4uHsDflU4-15" target="Q5rVgcIDudq4uHsDflU4-19">
          <mxGeometry width="50" height="50" relative="1" as="geometry">
            <mxPoint x="457" y="600" as="sourcePoint" />
            <mxPoint x="440" y="720" as="targetPoint" />
          </mxGeometry>
        </mxCell>
        <mxCell id="Q5rVgcIDudq4uHsDflU4-27" style="edgeStyle=orthogonalEdgeStyle;rounded=0;orthogonalLoop=1;jettySize=auto;html=1;entryX=0;entryY=0.5;entryDx=0;entryDy=0;endArrow=none;startFill=0;" edge="1" parent="1" source="Q5rVgcIDudq4uHsDflU4-24" target="Q5rVgcIDudq4uHsDflU4-15">
          <mxGeometry relative="1" as="geometry" />
        </mxCell>
        <mxCell id="Q5rVgcIDudq4uHsDflU4-28" style="edgeStyle=orthogonalEdgeStyle;rounded=0;orthogonalLoop=1;jettySize=auto;html=1;entryX=0.5;entryY=1;entryDx=0;entryDy=0;endArrow=none;startFill=0;" edge="1" parent="1" source="Q5rVgcIDudq4uHsDflU4-24" target="oQlI8IUR9d3YUx72Ssix-2">
          <mxGeometry relative="1" as="geometry">
            <Array as="points">
              <mxPoint x="260" y="680" />
            </Array>
          </mxGeometry>
        </mxCell>
        <mxCell id="Q5rVgcIDudq4uHsDflU4-24" value="publica" style="rhombus;whiteSpace=wrap;html=1;" vertex="1" parent="1">
          <mxGeometry x="320" y="660" width="120" height="40" as="geometry" />
        </mxCell>
        <mxCell id="Q5rVgcIDudq4uHsDflU4-25" value="n" style="text;html=1;align=center;verticalAlign=middle;whiteSpace=wrap;rounded=0;" vertex="1" parent="1">
          <mxGeometry x="310" y="660" width="20" height="20" as="geometry" />
        </mxCell>
        <mxCell id="Q5rVgcIDudq4uHsDflU4-26" value="n" style="text;html=1;align=center;verticalAlign=middle;whiteSpace=wrap;rounded=0;" vertex="1" parent="1">
          <mxGeometry x="430" y="660" width="20" height="20" as="geometry" />
        </mxCell>
      </root>
    </mxGraphModel>
  </diagram>
</mxfile>
